<mxfile host="app.diagrams.net" modified="2024-05-16T05:11:02.727Z" agent="Mozilla/5.0 (Windows NT 10.0; Win64; x64) AppleWebKit/537.36 (KHTML, like Gecko) Chrome/124.0.0.0 Safari/537.36" etag="dxINQKVEYl6b4kf2LGJp" version="24.4.2" type="device">
  <diagram name="Page-1" id="oEWHunwlEYVlvZML086L">
    <mxGraphModel dx="1834" dy="818" grid="0" gridSize="10" guides="1" tooltips="1" connect="1" arrows="0" fold="1" page="0" pageScale="1" pageWidth="1100" pageHeight="850" background="#FFFFFF" math="0" shadow="0">
      <root>
        <mxCell id="0" />
        <mxCell id="1" parent="0" />
        <mxCell id="2j0Aoro9pH6AjCgyymEe-13" style="edgeStyle=orthogonalEdgeStyle;rounded=0;orthogonalLoop=1;jettySize=auto;html=1;entryX=0.5;entryY=0;entryDx=0;entryDy=0;" edge="1" parent="1" source="2j0Aoro9pH6AjCgyymEe-1" target="2j0Aoro9pH6AjCgyymEe-12">
          <mxGeometry relative="1" as="geometry">
            <Array as="points">
              <mxPoint x="260" y="460" />
              <mxPoint x="415" y="460" />
            </Array>
          </mxGeometry>
        </mxCell>
        <mxCell id="2j0Aoro9pH6AjCgyymEe-19" style="edgeStyle=orthogonalEdgeStyle;rounded=0;orthogonalLoop=1;jettySize=auto;html=1;exitX=0.5;exitY=1;exitDx=0;exitDy=0;entryX=0.5;entryY=0;entryDx=0;entryDy=0;" edge="1" parent="1" source="2j0Aoro9pH6AjCgyymEe-1" target="2j0Aoro9pH6AjCgyymEe-11">
          <mxGeometry relative="1" as="geometry">
            <Array as="points">
              <mxPoint x="260" y="404" />
              <mxPoint x="59" y="404" />
            </Array>
          </mxGeometry>
        </mxCell>
        <mxCell id="2j0Aoro9pH6AjCgyymEe-21" style="edgeStyle=orthogonalEdgeStyle;rounded=0;orthogonalLoop=1;jettySize=auto;html=1;exitX=0.5;exitY=1;exitDx=0;exitDy=0;entryX=0;entryY=0.5;entryDx=0;entryDy=0;" edge="1" parent="1" source="2j0Aoro9pH6AjCgyymEe-1" target="2j0Aoro9pH6AjCgyymEe-17">
          <mxGeometry relative="1" as="geometry" />
        </mxCell>
        <mxCell id="2j0Aoro9pH6AjCgyymEe-1" value="calcFunction(elements[], *variables, *constants)" style="rounded=0;whiteSpace=wrap;html=1;fillColor=#d5e8d4;strokeColor=#82b366;" vertex="1" parent="1">
          <mxGeometry x="190" y="290" width="140" height="40" as="geometry" />
        </mxCell>
        <mxCell id="2j0Aoro9pH6AjCgyymEe-5" style="edgeStyle=orthogonalEdgeStyle;rounded=0;orthogonalLoop=1;jettySize=auto;html=1;exitX=0.5;exitY=1;exitDx=0;exitDy=0;entryX=0.5;entryY=0;entryDx=0;entryDy=0;" edge="1" parent="1" source="2j0Aoro9pH6AjCgyymEe-2" target="2j0Aoro9pH6AjCgyymEe-4">
          <mxGeometry relative="1" as="geometry">
            <Array as="points">
              <mxPoint x="436" y="180" />
              <mxPoint x="74" y="180" />
            </Array>
          </mxGeometry>
        </mxCell>
        <mxCell id="2j0Aoro9pH6AjCgyymEe-6" style="edgeStyle=orthogonalEdgeStyle;rounded=0;orthogonalLoop=1;jettySize=auto;html=1;exitX=0.5;exitY=1;exitDx=0;exitDy=0;entryX=0.5;entryY=0;entryDx=0;entryDy=0;" edge="1" parent="1" source="2j0Aoro9pH6AjCgyymEe-2" target="2j0Aoro9pH6AjCgyymEe-1">
          <mxGeometry relative="1" as="geometry">
            <Array as="points">
              <mxPoint x="436" y="180" />
              <mxPoint x="260" y="180" />
            </Array>
          </mxGeometry>
        </mxCell>
        <mxCell id="2j0Aoro9pH6AjCgyymEe-8" style="edgeStyle=orthogonalEdgeStyle;rounded=0;orthogonalLoop=1;jettySize=auto;html=1;exitX=0.5;exitY=1;exitDx=0;exitDy=0;entryX=0.5;entryY=0;entryDx=0;entryDy=0;" edge="1" parent="1" source="2j0Aoro9pH6AjCgyymEe-2" target="2j0Aoro9pH6AjCgyymEe-7">
          <mxGeometry relative="1" as="geometry">
            <Array as="points">
              <mxPoint x="436" y="180" />
              <mxPoint x="515" y="180" />
              <mxPoint x="515" y="344" />
              <mxPoint x="699" y="344" />
              <mxPoint x="699" y="389" />
            </Array>
          </mxGeometry>
        </mxCell>
        <mxCell id="2j0Aoro9pH6AjCgyymEe-40" value="i = 1...n" style="edgeLabel;html=1;align=center;verticalAlign=middle;resizable=0;points=[];" vertex="1" connectable="0" parent="2j0Aoro9pH6AjCgyymEe-8">
          <mxGeometry x="0.4379" y="-2" relative="1" as="geometry">
            <mxPoint as="offset" />
          </mxGeometry>
        </mxCell>
        <mxCell id="2j0Aoro9pH6AjCgyymEe-30" style="edgeStyle=orthogonalEdgeStyle;rounded=0;orthogonalLoop=1;jettySize=auto;html=1;exitX=0.5;exitY=1;exitDx=0;exitDy=0;entryX=0.5;entryY=0;entryDx=0;entryDy=0;" edge="1" parent="1" source="2j0Aoro9pH6AjCgyymEe-2" target="2j0Aoro9pH6AjCgyymEe-9">
          <mxGeometry relative="1" as="geometry">
            <mxPoint x="811" y="122" as="targetPoint" />
            <Array as="points">
              <mxPoint x="436" y="179" />
              <mxPoint x="749" y="179" />
              <mxPoint x="749" y="190" />
              <mxPoint x="950" y="190" />
            </Array>
          </mxGeometry>
        </mxCell>
        <mxCell id="2j0Aoro9pH6AjCgyymEe-2" value="&lt;b&gt;&lt;i&gt;Principal&lt;/i&gt;&lt;/b&gt;" style="rounded=0;whiteSpace=wrap;html=1;" vertex="1" parent="1">
          <mxGeometry x="383" y="100" width="105" height="40" as="geometry" />
        </mxCell>
        <mxCell id="2j0Aoro9pH6AjCgyymEe-4" value="loadElements(elements[])" style="rounded=0;whiteSpace=wrap;html=1;fillColor=#d0cee2;strokeColor=#56517e;" vertex="1" parent="1">
          <mxGeometry x="-1" y="238" width="150" height="40" as="geometry" />
        </mxCell>
        <mxCell id="2j0Aoro9pH6AjCgyymEe-39" style="edgeStyle=orthogonalEdgeStyle;rounded=0;orthogonalLoop=1;jettySize=auto;html=1;exitX=0.5;exitY=1;exitDx=0;exitDy=0;entryX=0.5;entryY=0;entryDx=0;entryDy=0;" edge="1" parent="1" source="2j0Aoro9pH6AjCgyymEe-7" target="2j0Aoro9pH6AjCgyymEe-38">
          <mxGeometry relative="1" as="geometry">
            <mxPoint x="699.166666666667" y="478.8333333333335" as="targetPoint" />
          </mxGeometry>
        </mxCell>
        <mxCell id="2j0Aoro9pH6AjCgyymEe-42" style="edgeStyle=orthogonalEdgeStyle;rounded=0;orthogonalLoop=1;jettySize=auto;html=1;exitX=0.5;exitY=1;exitDx=0;exitDy=0;entryX=0.5;entryY=0;entryDx=0;entryDy=0;" edge="1" parent="1" source="2j0Aoro9pH6AjCgyymEe-7" target="2j0Aoro9pH6AjCgyymEe-41">
          <mxGeometry relative="1" as="geometry" />
        </mxCell>
        <mxCell id="2j0Aoro9pH6AjCgyymEe-7" value="elementCalculations(*element, *constants)" style="rounded=0;whiteSpace=wrap;html=1;fillColor=#fad7ac;strokeColor=#b46504;" vertex="1" parent="1">
          <mxGeometry x="615" y="396" width="168" height="40" as="geometry" />
        </mxCell>
        <mxCell id="2j0Aoro9pH6AjCgyymEe-45" style="edgeStyle=orthogonalEdgeStyle;rounded=0;orthogonalLoop=1;jettySize=auto;html=1;exitX=0.5;exitY=1;exitDx=0;exitDy=0;entryX=0.5;entryY=0;entryDx=0;entryDy=0;" edge="1" parent="1" source="2j0Aoro9pH6AjCgyymEe-9" target="2j0Aoro9pH6AjCgyymEe-44">
          <mxGeometry relative="1" as="geometry">
            <Array as="points">
              <mxPoint x="950" y="300" />
              <mxPoint x="1066" y="300" />
              <mxPoint x="1066" y="367" />
              <mxPoint x="1009" y="367" />
            </Array>
          </mxGeometry>
        </mxCell>
        <mxCell id="2j0Aoro9pH6AjCgyymEe-46" value="i = 1...n" style="edgeLabel;html=1;align=center;verticalAlign=middle;resizable=0;points=[];" vertex="1" connectable="0" parent="2j0Aoro9pH6AjCgyymEe-45">
          <mxGeometry x="-0.1538" y="3" relative="1" as="geometry">
            <mxPoint x="37" y="33" as="offset" />
          </mxGeometry>
        </mxCell>
        <mxCell id="2j0Aoro9pH6AjCgyymEe-9" value="showElements(elements[], *variables, *constants)" style="rounded=0;whiteSpace=wrap;html=1;fillColor=#b0e3e6;strokeColor=#0e8088;" vertex="1" parent="1">
          <mxGeometry x="874.5" y="215" width="150" height="40" as="geometry" />
        </mxCell>
        <mxCell id="2j0Aoro9pH6AjCgyymEe-25" style="edgeStyle=orthogonalEdgeStyle;rounded=0;orthogonalLoop=1;jettySize=auto;html=1;exitX=0.5;exitY=1;exitDx=0;exitDy=0;entryX=0.5;entryY=0;entryDx=0;entryDy=0;" edge="1" parent="1" source="2j0Aoro9pH6AjCgyymEe-11" target="2j0Aoro9pH6AjCgyymEe-24">
          <mxGeometry relative="1" as="geometry" />
        </mxCell>
        <mxCell id="2j0Aoro9pH6AjCgyymEe-26" value="i = 1...n" style="edgeLabel;html=1;align=center;verticalAlign=middle;resizable=0;points=[];" vertex="1" connectable="0" parent="2j0Aoro9pH6AjCgyymEe-25">
          <mxGeometry x="-0.0852" y="1" relative="1" as="geometry">
            <mxPoint x="-1" y="11" as="offset" />
          </mxGeometry>
        </mxCell>
        <mxCell id="2j0Aoro9pH6AjCgyymEe-28" style="edgeStyle=orthogonalEdgeStyle;rounded=0;orthogonalLoop=1;jettySize=auto;html=1;exitX=0.5;exitY=1;exitDx=0;exitDy=0;entryX=0.5;entryY=0;entryDx=0;entryDy=0;" edge="1" parent="1" source="2j0Aoro9pH6AjCgyymEe-11" target="2j0Aoro9pH6AjCgyymEe-27">
          <mxGeometry relative="1" as="geometry">
            <Array as="points">
              <mxPoint x="58.5" y="546" />
              <mxPoint x="191.5" y="546" />
            </Array>
          </mxGeometry>
        </mxCell>
        <mxCell id="2j0Aoro9pH6AjCgyymEe-43" style="edgeStyle=orthogonalEdgeStyle;rounded=0;orthogonalLoop=1;jettySize=auto;html=1;exitX=0.5;exitY=1;exitDx=0;exitDy=0;entryX=0.5;entryY=0;entryDx=0;entryDy=0;" edge="1" parent="1" source="2j0Aoro9pH6AjCgyymEe-11" target="2j0Aoro9pH6AjCgyymEe-22">
          <mxGeometry relative="1" as="geometry">
            <Array as="points">
              <mxPoint x="59" y="546" />
              <mxPoint x="-83" y="546" />
            </Array>
          </mxGeometry>
        </mxCell>
        <mxCell id="2j0Aoro9pH6AjCgyymEe-11" value="calcVariables(elements[],&amp;nbsp; *variables)" style="rounded=0;whiteSpace=wrap;html=1;fillColor=#f8cecc;strokeColor=#b85450;" vertex="1" parent="1">
          <mxGeometry x="-16.5" y="449" width="150" height="40" as="geometry" />
        </mxCell>
        <mxCell id="2j0Aoro9pH6AjCgyymEe-34" style="edgeStyle=orthogonalEdgeStyle;rounded=0;orthogonalLoop=1;jettySize=auto;html=1;exitX=0.5;exitY=1;exitDx=0;exitDy=0;entryX=0.5;entryY=0;entryDx=0;entryDy=0;" edge="1" parent="1" source="2j0Aoro9pH6AjCgyymEe-12" target="2j0Aoro9pH6AjCgyymEe-33">
          <mxGeometry relative="1" as="geometry" />
        </mxCell>
        <mxCell id="2j0Aoro9pH6AjCgyymEe-36" style="edgeStyle=orthogonalEdgeStyle;rounded=0;orthogonalLoop=1;jettySize=auto;html=1;exitX=0.5;exitY=1;exitDx=0;exitDy=0;entryX=0.5;entryY=0;entryDx=0;entryDy=0;" edge="1" parent="1" source="2j0Aoro9pH6AjCgyymEe-12" target="2j0Aoro9pH6AjCgyymEe-35">
          <mxGeometry relative="1" as="geometry" />
        </mxCell>
        <mxCell id="2j0Aoro9pH6AjCgyymEe-12" value="solveLinearSystem(*variables, *constants)" style="rounded=0;whiteSpace=wrap;html=1;fillColor=#dae8fc;strokeColor=#6c8ebf;" vertex="1" parent="1">
          <mxGeometry x="330" y="493" width="170" height="40" as="geometry" />
        </mxCell>
        <mxCell id="2j0Aoro9pH6AjCgyymEe-17" value="&lt;b&gt;a = e^k&lt;/b&gt;" style="rounded=0;whiteSpace=wrap;html=1;" vertex="1" parent="1">
          <mxGeometry x="375" y="384" width="75" height="40" as="geometry" />
        </mxCell>
        <mxCell id="2j0Aoro9pH6AjCgyymEe-22" value="&lt;b&gt;A = B = C = D = E = F = 0&lt;/b&gt;" style="rounded=0;whiteSpace=wrap;html=1;" vertex="1" parent="1">
          <mxGeometry x="-131" y="609" width="95" height="66" as="geometry" />
        </mxCell>
        <mxCell id="2j0Aoro9pH6AjCgyymEe-24" value="&lt;div&gt;&lt;span style=&quot;background-color: initial;&quot;&gt;B = B + ln(V[i].x)&lt;/span&gt;&lt;/div&gt;&lt;div&gt;D = D + ln(V[i].x *2)&lt;/div&gt;&lt;div&gt;E = E + ln(V[i].y)&lt;/div&gt;&lt;div&gt;F = F + ln(V[i].x * V[i].y)&lt;/div&gt;" style="rounded=0;whiteSpace=wrap;html=1;" vertex="1" parent="1">
          <mxGeometry x="-13.5" y="609" width="144" height="92" as="geometry" />
        </mxCell>
        <mxCell id="2j0Aoro9pH6AjCgyymEe-27" value="&lt;div&gt;&lt;b&gt;A = n&lt;/b&gt;&lt;/div&gt;&lt;div&gt;&lt;b&gt;C = B&lt;/b&gt;&lt;/div&gt;" style="rounded=0;whiteSpace=wrap;html=1;" vertex="1" parent="1">
          <mxGeometry x="156.5" y="609" width="69" height="57" as="geometry" />
        </mxCell>
        <mxCell id="2j0Aoro9pH6AjCgyymEe-33" value="&lt;div&gt;&lt;b&gt;detEBFD = (E*D) - (B*F)&lt;/b&gt;&lt;/div&gt;&lt;div&gt;&lt;b&gt;detAECF = (A*F) - (E*C)&lt;/b&gt;&lt;b&gt;&lt;br&gt;&lt;/b&gt;&lt;/div&gt;&lt;div&gt;&lt;b&gt;detABCD = (A*D) - (B*C)&lt;/b&gt;&lt;b&gt;&lt;br&gt;&lt;/b&gt;&lt;/div&gt;" style="rounded=0;whiteSpace=wrap;html=1;" vertex="1" parent="1">
          <mxGeometry x="262" y="592" width="150" height="57" as="geometry" />
        </mxCell>
        <mxCell id="2j0Aoro9pH6AjCgyymEe-35" value="&lt;b&gt;k = detEBDF/detABCD&lt;/b&gt;&lt;div&gt;&lt;b&gt;b = detAECF/detABCD&lt;/b&gt;&lt;b&gt;&lt;br&gt;&lt;/b&gt;&lt;/div&gt;" style="rounded=0;whiteSpace=wrap;html=1;" vertex="1" parent="1">
          <mxGeometry x="430" y="592" width="137" height="57" as="geometry" />
        </mxCell>
        <mxCell id="2j0Aoro9pH6AjCgyymEe-37" value="verifyFunction(elements[],&amp;nbsp; *constants)" style="rounded=0;whiteSpace=wrap;html=1;fillColor=#e1d5e7;strokeColor=#9673a6;" vertex="1" parent="1">
          <mxGeometry x="450" y="263" width="150" height="40" as="geometry" />
        </mxCell>
        <mxCell id="2j0Aoro9pH6AjCgyymEe-38" value="&lt;div&gt;&lt;b&gt;neutronesObtenidos&amp;nbsp;&lt;/b&gt;&lt;/div&gt;&lt;div&gt;= a * ( V[i].x ^ b )&lt;/div&gt;&lt;div&gt;&lt;br&gt;&lt;/div&gt;&lt;div&gt;&lt;b&gt;redondeoCercano&amp;nbsp;&lt;/b&gt;&lt;/div&gt;&lt;div&gt;=&amp;nbsp;&lt;span style=&quot;background-color: initial;&quot;&gt;round(neutronesObtenidos&lt;/span&gt;&lt;b style=&quot;background-color: initial;&quot;&gt;)&lt;/b&gt;&lt;/div&gt;&lt;div&gt;&lt;b style=&quot;background-color: initial;&quot;&gt;&lt;br&gt;&lt;/b&gt;&lt;/div&gt;&lt;div&gt;&lt;b&gt;redondeoTruncado&lt;/b&gt;&lt;/div&gt;&lt;div&gt;= (int)neutronesObtenidos&lt;/div&gt;" style="rounded=0;whiteSpace=wrap;html=1;" vertex="1" parent="1">
          <mxGeometry x="617.5" y="533" width="163" height="120" as="geometry" />
        </mxCell>
        <mxCell id="2j0Aoro9pH6AjCgyymEe-41" value="&lt;div&gt;&lt;b&gt;difNObtRC&lt;/b&gt;&lt;/div&gt;&lt;div&gt;= V[i].y - redondeoCercano&lt;/div&gt;&lt;div&gt;&lt;br&gt;&lt;/div&gt;&lt;div&gt;&lt;b&gt;difNobtRT&lt;/b&gt;&lt;/div&gt;&lt;div&gt;= V[i].y - redondeoTruncado&lt;/div&gt;" style="rounded=0;whiteSpace=wrap;html=1;" vertex="1" parent="1">
          <mxGeometry x="802" y="533" width="152" height="97" as="geometry" />
        </mxCell>
        <mxCell id="2j0Aoro9pH6AjCgyymEe-44" value="&lt;div&gt;printf() ....&lt;/div&gt;&lt;div&gt;Nombre&lt;/div&gt;&lt;div&gt;Numero Atomico&lt;/div&gt;&lt;div&gt;&lt;span style=&quot;background-color: initial;&quot;&gt;Neutrones Obtenidos&lt;/span&gt;&lt;/div&gt;&lt;div&gt;&lt;span style=&quot;background-color: initial;&quot;&gt;Redondeo Cercano&lt;br&gt;&lt;/span&gt;&lt;/div&gt;&lt;div&gt;&lt;span style=&quot;background-color: initial;&quot;&gt;Redondeo Truncado&lt;br&gt;&lt;/span&gt;&lt;/div&gt;&lt;div&gt;&lt;span style=&quot;background-color: initial;&quot;&gt;Diferencia Neutrones-RC&lt;br&gt;&lt;/span&gt;&lt;/div&gt;&lt;div&gt;&lt;span style=&quot;background-color: initial;&quot;&gt;Diferencia NeutronesRT&lt;br&gt;&lt;/span&gt;&lt;/div&gt;" style="rounded=0;whiteSpace=wrap;html=1;direction=south;" vertex="1" parent="1">
          <mxGeometry x="835" y="286" width="173.5" height="154.5" as="geometry" />
        </mxCell>
      </root>
    </mxGraphModel>
  </diagram>
</mxfile>
